<svg width="32" height="33" viewBox="0 0 32 33" fill="none" xmlns="http://www.w3.org/2000/svg">
<rect x="0.499878" y="1.32812" width="30.9998" height="30.9998" rx="2.69998" stroke="#494B4E"/>
<g clip-path="url(#clip0_1059_531)">
<path fill-rule="evenodd" clip-rule="evenodd" d="M21.6414 20.0525C21.6414 21.5405 20.4894 22.7487 19.0741 22.7487H12.9287C11.5134 22.7487 10.3614 21.5405 10.3614 20.0525V13.6C10.3614 12.1133 11.5134 10.9051 12.9287 10.9051H19.0741C20.4894 10.9051 21.6414 12.1133 21.6414 13.6V20.0525ZM19.0741 9.62695H12.9287C10.8414 9.62695 9.14429 11.4091 9.14429 13.6V20.0525C9.14429 22.2447 10.8414 24.0269 12.9294 24.0269H19.0734C21.1614 24.0269 22.8585 22.2447 22.8585 20.0525V13.6C22.8585 11.4091 21.1614 9.62695 19.0734 9.62695H19.0741Z" fill="#F3F5F7"/>
<path fill-rule="evenodd" clip-rule="evenodd" d="M16.0007 19.8658C15.2858 19.8652 14.6002 19.581 14.0946 19.0755C13.589 18.57 13.3046 17.8845 13.3038 17.1696C13.3044 16.4544 13.5887 15.7686 14.0943 15.2627C14.5999 14.7568 15.2855 14.4722 16.0007 14.4713C16.716 14.472 17.4018 14.7566 17.9074 15.2625C18.4131 15.7684 18.6973 16.4543 18.6976 17.1696C18.6967 17.8844 18.4123 18.5697 17.9067 19.0751C17.401 19.5804 16.7156 19.8646 16.0007 19.8651V19.8658ZM16.0007 13.056C13.7324 13.056 11.8865 14.9006 11.8865 17.1696C11.8877 18.2604 12.3216 19.3062 13.0929 20.0776C13.8642 20.849 14.9099 21.2831 16.0007 21.2845C18.2691 21.2845 20.115 19.4372 20.115 17.1696C20.1137 16.0789 19.6798 15.0332 18.9085 14.262C18.1372 13.4908 17.0915 13.0571 16.0007 13.056ZM19.0871 11.6846C18.817 11.6846 18.5502 11.7929 18.3603 11.9849C18.1696 12.1769 18.0579 12.4416 18.0579 12.7118C18.0579 12.9826 18.1696 13.248 18.3596 13.44C18.5502 13.6299 18.817 13.7417 19.0871 13.7417C19.358 13.7417 19.6227 13.6299 19.8133 13.44C20.0053 13.248 20.115 12.9826 20.115 12.7125C20.1151 12.5774 20.0886 12.4437 20.0369 12.319C19.9853 12.1942 19.9096 12.0809 19.8141 11.9854C19.7187 11.89 19.6053 11.8143 19.4806 11.7626C19.3558 11.711 19.2221 11.6845 19.0871 11.6846Z" fill="#F3F5F7"/>
</g>
<defs>
<clipPath id="clip0_1059_531">
<rect x="8.80066" y="9.62891" width="14.3999" height="14.3999" fill="white"/>
</clipPath>
</defs>
</svg>
