<?xml version="1.0" encoding="utf-8"?>
<!-- Generator: Adobe Illustrator 19.0.0, SVG Export Plug-In . SVG Version: 6.00 Build 0)  -->
<svg version="1.1" id="Layer_1" xmlns="http://www.w3.org/2000/svg" xmlns:xlink="http://www.w3.org/1999/xlink" x="0px" y="0px"
	 viewBox="8 -7 34 33" style="enable-background:new 8 -7 34 33;" xml:space="preserve">
<style type="text/css">
	.st0{fill:#206ECF;}
	.st1{fill:#FFFFFF;}
</style>
<path class="st0" d="M13.1-6.5H37c2.2,0,4,1.8,4,4v23.9c0,2.2-1.8,4-4,4H13.1c-2.2,0-4-1.8-4-4V-2.5C9-4.7,10.8-6.5,13.1-6.5z"/>
<path class="st1" d="M33.1,15.2H19.3c-0.2,0-0.3-0.2-0.3-0.3V1.2h-2v13.7c0,1.3,1.1,2.3,2.3,2.3h13.7V15.2z"/>
<path class="st1" d="M27.7,5.9v-2h5.4v5.4h-2V7.3l-4.4,4.4L24,9l-2.3,2.3l-1.4-1.4L24,6.1l2.7,2.7l2.9-2.9H27.7z"/>
</svg>
