<?xml version="1.0" encoding="utf-8"?>
<!-- Generator: Adobe Illustrator 19.0.0, SVG Export Plug-In . SVG Version: 6.00 Build 0)  -->
<svg version="1.1" id="Layer_1" xmlns="http://www.w3.org/2000/svg" xmlns:xlink="http://www.w3.org/1999/xlink" x="0px" y="0px"
	 viewBox="0 0 60.9 60.9" style="enable-background:new 0 0 60.9 60.9;" xml:space="preserve">
<style type="text/css">
	.st0{fill:#216ECE;}
	.st1{fill:#206ECE;}
	.st2{fill:#2D76D1;}
	.st3{fill:#2A75D0;}
	.st4{fill:#226FCF;}
	.st5{fill:#2E77D1;}
	.st6{fill:#2C76D0;}
	.st7{fill:#2370CF;}
	.st8{fill:#2571CF;}
	.st9{fill:#3078D1;}
	.st10{fill:#2679D3;}
	.st11{fill:#FEFEFE;}
</style>
<g id="XMLID_1_">
	<path id="XMLID_101_" class="st0" d="M33.3,61.1c-1.8,0-3.7,0-5.5,0c-0.2-0.3-0.6-0.1-0.9-0.3c-0.2-0.7-0.7-1.2-1.1-1.7
		c-3.9-5.5-7.9-11-11.8-16.6C9.8,36.5,5.7,30.6,1.6,24.6c-0.2-0.2-0.3-0.5-0.7-0.6c0.6-2.9,1.7-5.7,3.1-8.3c1.7-3.1,3.9-5.8,6.6-8.1
		c0.1,0.4,0.3,0.7,0.6,0.9c1.2,1.5,2.3,2.9,3.5,4.3c0.7,0.8,1.2,1.8,2.1,2.4c-0.9,0.9-1.1,2-1.1,3.3c0,6.9,0,13.7,0,20.6
		c0,2.7,1.4,4.1,4.1,4.1c5.2,0,10.3,0,15.5,0c0.3,0,0.7,0,1,0.1c1.9,0.7,3.7,1.4,5.6,2.1c0,0.3,0.1,0.5,0.3,0.7
		c2.4,2.8,4.7,5.6,7.1,8.4c-0.1,0.1-0.2,0.2-0.3,0.3c-3.9,3-8.3,4.9-13.2,5.7C34.9,60.8,34.1,60.8,33.3,61.1z"/>
	<path id="XMLID_100_" class="st1" d="M27.9,0.1c1.1,0,2.2,0,3.3,0C31.6,0.4,32,0.6,32.3,1c0.8,0.8,1.6,1.7,2.4,2.5
		c2.2,2.3,4.5,4.7,6.7,7c3.6,3.8,7.3,7.5,11,11.3c1,1,2.1,2,3,3.1c1.9,2,3.8,3.9,5.8,5.8c0,0.9,0,1.9,0,2.8
		c-0.2,0.1-0.1,0.3-0.2,0.5c-0.2,1.6-0.5,3.1-0.9,4.6c-1.2,4.5-3.3,8.5-6.4,12c-0.4-0.1-0.7-0.4-0.9-0.7c-2.3-2.7-4.5-5.4-6.8-8.1
		c-0.3-0.3-0.5-0.8-0.9-0.9c0-0.3,0-0.6,0-0.9c0-7.1,0-14.3,0-21.4c0-2.5-1.5-4-4-4c-5.3,0-10.6,0-16,0c-0.6,0-1.2,0-1.9,0
		c0-0.2-0.1-0.4-0.3-0.6c-1.2-1.5-2.4-3.1-3.7-4.6c-1.4-1.6-2.6-3.3-4-4.9c3.2-2,6.7-3.2,10.3-3.9C26.3,0.4,27.2,0.5,27.9,0.1z"/>
	<path id="XMLID_99_" class="st2" d="M0.9,24.1c0.3,0.1,0.5,0.3,0.7,0.6c4.1,6,8.3,11.9,12.4,17.9c3.9,5.6,7.8,11.1,11.8,16.6
		c0.4,0.6,0.9,1.1,1.1,1.7c-3.1-0.3-6.1-1.2-9-2.5c-0.6-1.2-1.5-2.2-2.2-3.3c-5-7.1-10.1-14.2-14.9-21.4c-0.1-0.2-0.3-0.4-0.6-0.4
		c0-1.8,0-3.6,0-5.4c0.2-0.1,0.1-0.3,0.2-0.5C0.5,26.2,0.6,25.1,0.9,24.1z"/>
	<path id="XMLID_98_" class="st3" d="M61.1,30.6c-2-1.9-3.9-3.8-5.8-5.8c-1-1.1-2-2.1-3-3.1c-3.7-3.8-7.3-7.5-11-11.3
		c-2.2-2.3-4.5-4.7-6.7-7c-0.8-0.8-1.6-1.7-2.4-2.5c-0.3-0.3-0.7-0.6-1.1-0.8c0.7,0,1.4,0,2.1,0c0.1,0.2,0.4,0.1,0.6,0.2
		c2.7,0.3,5.3,0.9,7.8,1.9c0.1,0.2,0.2,0.2,0.4,0.1l0,0l0,0C42,2.8,42.2,3,42.5,3.3c2.4,2.4,4.6,4.8,7,7.2c3,3.1,6,6.1,9,9.2
		c0.2,0.2,0.5,0.5,0.8,0.6c0.7,1.7,1.1,3.4,1.4,5.2c0.2,0.8,0.1,1.7,0.4,2.5C61.1,28.8,61.1,29.7,61.1,30.6z"/>
	<path id="XMLID_93_" class="st4" d="M17.9,58.3c-3.7-1.6-6.8-3.9-9.6-6.9c-4.4-4.8-7.1-10.4-8-16.9c0-0.3,0.1-0.7-0.3-1
		c0-0.1,0-0.3,0-0.4c0.3,0.1,0.4,0.2,0.6,0.4c4.9,7.2,10,14.2,14.9,21.4C16.4,56.1,17.3,57.1,17.9,58.3z"/>
	<path id="XMLID_89_" class="st5" d="M23.2,14.4c-1.1,0-2.3,0.1-3.4,0c-1.1,0-2.1,0.2-3,1c-0.9-0.7-1.4-1.6-2.1-2.4
		c-1.2-1.4-2.4-2.9-3.5-4.3c-0.2-0.3-0.5-0.6-0.6-0.9c1.4-1.3,2.9-2.4,4.5-3.3c1.5,1.5,2.7,3.3,4,4.9c1.3,1.5,2.5,3,3.7,4.6
		C23,14,23.1,14.2,23.2,14.4z"/>
	<path id="XMLID_88_" class="st6" d="M41.9,45.6c0.9,0.3,1.7,0.6,2.6,1c0.4,0.2,0.5,0.1,0.5-0.4c0-1.8,0-3.6,0-5.4
		c0.5,0.1,0.7,0.6,0.9,0.9c2.3,2.7,4.5,5.4,6.8,8.1c0.3,0.3,0.5,0.6,0.9,0.7c-1.3,1.6-2.7,3-4.4,4.1c-2.4-2.8-4.7-5.6-7.1-8.4
		C42,46.1,41.9,45.9,41.9,45.6z"/>
	<path id="XMLID_87_" class="st7" d="M42.1,2.4c6,2.4,10.8,6.5,14.3,11.9c1.2,1.9,2.2,3.8,2.9,6c-0.4-0.1-0.6-0.4-0.8-0.6
		c-3-3.1-6.1-6.1-9-9.2c-2.3-2.4-4.6-4.9-7-7.2C42.2,3,42,2.8,42.1,2.4z"/>
	<path id="XMLID_86_" class="st7" d="M41.7,2.3c0.1,0,0.2,0.1,0.4,0.1C41.9,2.5,41.8,2.4,41.7,2.3z"/>
	<path id="XMLID_85_" class="st8" d="M35.4,38.5c-5.2,1.4-10.1,0.9-14.7-2c-0.1-0.1-0.2-0.1-0.3-0.2c-0.6-0.5-0.8-1-0.4-1.5
		c0.4-0.5,0.9-0.5,1.6-0.1c2.8,2,6,2.6,9.4,2.6c1.3,0,2.5-0.3,3.8-0.5c0,0.2,0.1,0.5,0.3,0.6C35.4,37.7,35.4,38.1,35.4,38.5z"/>
	<path id="XMLID_84_" class="st9" d="M35.4,38.5c0-0.4,0-0.9-0.5-1.1c-0.2-0.1-0.3-0.4-0.3-0.6c1.7-0.5,3.3-1.2,4.7-2.3
		c0.4-0.3,0.9-0.2,1.2,0.2c0.3,0.4,0.3,0.9-0.1,1.3c-0.4,0.3-0.8,0.6-1.2,0.9C38.1,37.6,36.8,38.2,35.4,38.5z"/>
	<polygon id="XMLID_2_" class="st10" points="15.4,4.3 53.7,50.5 49,55 10.2,8 	"/>
	<polygon id="XMLID_3_" class="st10" points="31,0 60.9,30.9 60.9,27 60.1,23 59.3,20.3 59.1,19.8 42.4,2.5 39.5,1.5 35.6,0.5 33,0 
			"/>
	<polygon id="XMLID_4_" class="st10" points="17.7,58.1 18.8,58.7 19.9,59.1 21.1,59.6 22.5,60 23.8,60.3 25.2,60.6 26.5,60.8 
		27.1,60.8 1,23.6 0.4,25.9 0,28.8 0,33 0.1,33.6 0.4,34.3 17.4,58.1 	"/>
	<path id="XMLID_90_" class="st11" d="M23.3,14.4c0.6,0,1.2,0,1.9,0c5.3,0,10.6,0,16,0c2.5,0,4,1.5,4,4c0,7.1,0,14.3,0,21.4
		c0,0.3,0,0.6,0,0.9c0,1.8,0,3.6,0,5.4c0,0.5-0.1,0.6-0.5,0.4c-0.8-0.3-1.7-0.6-2.6-1c-1.9-0.7-3.7-1.4-5.6-2.1
		c-0.3-0.1-0.7-0.1-1-0.1c-5.2,0-10.3,0-15.5,0c-2.7,0-4.1-1.4-4.1-4.1c0-6.9,0-13.7,0-20.6c0-1.3,0.3-2.4,1.1-3.3
		c0.9-0.7,1.8-1,3-1C21,14.4,22.2,14.4,23.3,14.4z M35.6,38.5c1.4-0.3,2.7-0.9,4-1.7c0.4-0.3,0.8-0.5,1.2-0.9
		c0.4-0.4,0.4-0.9,0.1-1.3c-0.3-0.4-0.8-0.5-1.2-0.2c-1.4,1.1-3.1,1.7-4.7,2.3c-1.2,0.2-2.5,0.5-3.8,0.5c-3.4,0.1-6.6-0.6-9.4-2.6
		c-0.7-0.5-1.2-0.4-1.6,0.1c-0.4,0.5-0.2,1,0.4,1.5c0.1,0.1,0.2,0.2,0.3,0.2C25.4,39.3,30.4,39.8,35.6,38.5z"/>
</g>
</svg>
