<?xml version="1.0" encoding="utf-8"?>
<!-- Generator: Adobe Illustrator 19.0.0, SVG Export Plug-In . SVG Version: 6.00 Build 0)  -->
<svg version="1.1" id="Layer_1" xmlns="http://www.w3.org/2000/svg" xmlns:xlink="http://www.w3.org/1999/xlink" x="0px" y="0px"
	 viewBox="489 -270 996 559" style="enable-background:new 489 -270 996 559;" xml:space="preserve">
<style type="text/css">
	.st0{fill:#FFFFFF;}
	.st1{fill:#FFFFFF;stroke:#F5F7FC;stroke-width:3.5065;}
	.st2{fill:#E1E7EE;}
	.st3{fill:#F0F3F9;}
	.st4{fill:#EBF0F6;}
	.st5{fill:#EDF1F7;}
	.st6{fill:#DCE3EB;}
	.st7{fill-opacity:3.000000e-002;}
	.st8{fill:none;stroke:#F5F7FC;stroke-width:3.5065;}
	.st9{fill:none;stroke:#EBF0F6;stroke-width:1.7533;stroke-linecap:round;}
	.st10{fill:none;stroke:#EEF4FC;stroke-width:3.5065;stroke-linecap:round;}
	.st11{fill:none;stroke:#DCE3EB;stroke-width:1.7533;}
	.st12{fill:#EEF4FC;}
</style>
<g>
	<path class="st0" d="M595-248H1405c7.7,0,14,6.3,14,14V239c0,7.7-6.3,14-14,14H595c-7.7,0-14-6.3-14-14V-234
		C581-241.7,587.3-248,595-248z"/>
</g>
<path class="st1" d="M965-186.2H1387c6.8,0,12.3,5.5,12.3,12.3V-11c0,6.8-5.5,12.3-12.3,12.3H965c-6.8,0-12.3-5.5-12.3-12.3V-174
	C952.8-180.8,958.2-186.2,965-186.2z"/>
<path class="st1" d="M651-188.2H917c6.8,0,12.3,5.5,12.3,12.3V-87c0,6.8-5.5,12.3-12.3,12.3H651c-6.8,0-12.3-5.5-12.3-12.3V-176
	C638.8-182.8,644.2-188.2,651-188.2z"/>
<path class="st2" d="M672-111h56c3.9,0,7,3.1,7,7l0,0c0,3.9-3.1,7-7,7h-56c-3.9,0-7-3.1-7-7l0,0C665-107.9,668.1-111,672-111z"/>
<path class="st3" d="M842-171h9c3.9,0,7,3.1,7,7v66c0,3.9-3.1,7-7,7h-9c-3.9,0-7-3.1-7-7v-66C835-167.9,838.1-171,842-171z"/>
<path class="st3" d="M871-146h7c3.9,0,7,3.1,7,7v42c0,3.9-3.1,7-7,7h-7c-3.9,0-7-3.1-7-7v-42C864-142.9,867.1-146,871-146z"/>
<path class="st3" d="M899-111h7c3.9,0,7,3.1,7,7v7c0,3.9-3.1,7-7,7h-7c-3.9,0-7-3.1-7-7v-7C892-107.9,895.1-111,899-111z"/>
<path class="st1" d="M651-15.2H917c6.8,0,12.3,5.5,12.3,12.3V86c0,6.8-5.5,12.3-12.3,12.3H651c-6.8,0-12.3-5.5-12.3-12.3V-3
	C638.8-9.8,644.2-15.2,651-15.2z"/>
<path class="st2" d="M672,62h56c3.9,0,7,3.1,7,7l0,0c0,3.9-3.1,7-7,7h-56c-3.9,0-7-3.1-7-7l0,0C665,65.1,668.1,62,672,62z"/>
<path class="st3" d="M842,2h9c3.9,0,7,3.1,7,7v66c0,3.9-3.1,7-7,7h-9c-3.9,0-7-3.1-7-7V9C835,5.1,838.1,2,842,2z"/>
<path class="st3" d="M871,27h7c3.9,0,7,3.1,7,7v42c0,3.9-3.1,7-7,7h-7c-3.9,0-7-3.1-7-7V34C864,30.1,867.1,27,871,27z"/>
<path class="st3" d="M899,62h7c3.9,0,7,3.1,7,7v7c0,3.9-3.1,7-7,7h-7c-3.9,0-7-3.1-7-7v-7C892,65.1,895.1,62,899,62z"/>
<path class="st1" d="M652,157.8H917c6.8,0,12.3,5.5,12.3,12.3V235c0,6.8-5.5,12.3-12.3,12.3H652c-6.8,0-12.3-5.5-12.3-12.3V170
	C639.8,163.2,645.2,157.8,652,157.8z"/>
<path class="st2" d="M672,221h56c3.9,0,7,3.1,7,7l0,0c0,3.9-3.1,7-7,7h-56c-3.9,0-7-3.1-7-7l0,0C665,224.1,668.1,221,672,221z"/>
<path class="st3" d="M842,161h9c3.9,0,7,3.1,7,7v67c0,3.9-3.1,7-7,7h-9c-3.9,0-7-3.1-7-7v-67C835,164.1,838.1,161,842,161z"/>
<path class="st3" d="M872,186h7c3.9,0,7,3.1,7,7v42c0,3.9-3.1,7-7,7h-7c-3.9,0-7-3.1-7-7v-42C865,189.1,868.1,186,872,186z"/>
<path class="st3" d="M900,221h7c3.9,0,7,3.1,7,7v7c0,3.9-3.1,7-7,7h-7c-3.9,0-7-3.1-7-7v-7C893,224.1,896.1,221,900,221z"/>
<path class="st4" d="M984,132h30c3.9,0,7,3.1,7,7v21c0,3.9-3.1,7-7,7h-30c-3.9,0-7-3.1-7-7v-21C977,135.1,980.1,132,984,132z"/>
<path class="st4" d="M1042,111h32c3.9,0,7,3.1,7,7v42c0,3.9-3.1,7-7,7h-32c-3.9,0-7-3.1-7-7v-42C1035,114.1,1038.1,111,1042,111z"/>
<path class="st4" d="M1101,83h32c3.9,0,7,3.1,7,7v70c0,3.9-3.1,7-7,7h-32c-3.9,0-7-3.1-7-7V90C1094,86.1,1097.1,83,1101,83z"/>
<path class="st4" d="M1159,55h32c3.9,0,7,3.1,7,7v98c0,3.9-3.1,7-7,7h-32c-3.9,0-7-3.1-7-7V62C1152,58.1,1155.1,55,1159,55z"/>
<path class="st4" d="M1217,27h32c3.9,0,7,3.1,7,7v126c0,3.9-3.1,7-7,7h-32c-3.9,0-7-3.1-7-7V34C1210,30.1,1213.1,27,1217,27z"/>
<path class="st4" d="M1277,83h32c3.9,0,7,3.1,7,7v70c0,3.9-3.1,7-7,7h-32c-3.9,0-7-3.1-7-7V90C1270,86.1,1273.1,83,1277,83z"/>
<path class="st4" d="M1336,111h32c3.9,0,7,3.1,7,7v42c0,3.9-3.1,7-7,7h-32c-3.9,0-7-3.1-7-7v-42C1329,114.1,1332.1,111,1336,111z"/>
<path class="st5" d="M581-238c0-5.5,4.5-10,10-10h815.5c6.9,0,12.5,5.6,12.5,12.5v12.5H581V-238z"/>
<circle class="st6" cx="595.5" cy="-235.5" r="5.5"/>
<circle class="st6" cx="612.5" cy="-235.5" r="5.5"/>
<circle class="st6" cx="630.5" cy="-235.5" r="5.5"/>
<circle class="st6" cx="954.5" cy="-235.5" r="5.5"/>
<path class="st6" d="M970.5-239h77c1.9,0,3.5,1.6,3.5,3.5l0,0c0,1.9-1.6,3.5-3.5,3.5h-77c-1.9,0-3.5-1.6-3.5-3.5l0,0
	C967-237.4,968.6-239,970.5-239z"/>
<rect x="581" y="-225" class="st7" width="838" height="478"/>
<g>
	<path class="st0" d="M1149,126H1437c7.7,0,14,6.3,14,14V196c0,7.7-6.3,14-14,14H1149c-7.7,0-14-6.3-14-14V140
		C1135,132.3,1141.3,126,1149,126z"/>
	<path class="st8" d="M1149,127.8H1437c6.8,0,12.3,5.5,12.3,12.3V196c0,6.8-5.5,12.3-12.3,12.3H1149c-6.8,0-12.3-5.5-12.3-12.3V140
		C1136.8,133.2,1142.2,127.8,1149,127.8z"/>
</g>
<path class="st6" d="M1170.3,180h22.5c2.9,0,5.3,2.4,5.3,5.3v0.5c0,2.9-2.4,5.3-5.3,5.3h-22.5c-2.9,0-5.3-2.4-5.3-5.3v-0.5
	C1165,182.4,1167.4,180,1170.3,180z"/>
<path class="st6" d="M1168.5,158h33c1.9,0,3.5,1.6,3.5,3.5l0,0c0,1.9-1.6,3.5-3.5,3.5h-33c-1.9,0-3.5-1.6-3.5-3.5l0,0
	C1165,159.6,1166.6,158,1168.5,158z"/>
<path class="st6" d="M1240.5,158h23c1.9,0,3.5,1.6,3.5,3.5l0,0c0,1.9-1.6,3.5-3.5,3.5h-23c-1.9,0-3.5-1.6-3.5-3.5l0,0
	C1237,159.6,1238.6,158,1240.5,158z"/>
<path class="st6" d="M1308.5,158h33c1.9,0,3.5,1.6,3.5,3.5l0,0c0,1.9-1.6,3.5-3.5,3.5h-33c-1.9,0-3.5-1.6-3.5-3.5l0,0
	C1305,159.6,1306.6,158,1308.5,158z"/>
<path class="st6" d="M1384.5,158h14c1.9,0,3.5,1.6,3.5,3.5l0,0c0,1.9-1.6,3.5-3.5,3.5h-14c-1.9,0-3.5-1.6-3.5-3.5l0,0
	C1381,159.6,1382.6,158,1384.5,158z"/>
<path class="st6" d="M1167,152h28c1.1,0,2,0.9,2,2l0,0c0,1.1-0.9,2-2,2h-28c-1.1,0-2-0.9-2-2l0,0C1165,152.9,1165.9,152,1167,152z"
	/>
<path class="st6" d="M1239,152h31c1.1,0,2,0.9,2,2l0,0c0,1.1-0.9,2-2,2h-31c-1.1,0-2-0.9-2-2l0,0C1237,152.9,1237.9,152,1239,152z"
	/>
<path class="st6" d="M1307,152h47c1.1,0,2,0.9,2,2l0,0c0,1.1-0.9,2-2,2h-47c-1.1,0-2-0.9-2-2l0,0C1305,152.9,1305.9,152,1307,152z"
	/>
<path class="st6" d="M1383,152h24c1.1,0,2,0.9,2,2l0,0c0,1.1-0.9,2-2,2h-24c-1.1,0-2-0.9-2-2l0,0C1381,152.9,1381.9,152,1383,152z"
	/>
<path class="st6" d="M1238.3,180h29.5c2.9,0,5.3,2.4,5.3,5.3v0.5c0,2.9-2.4,5.3-5.3,5.3h-29.5c-2.9,0-5.3-2.4-5.3-5.3v-0.5
	C1233,182.4,1235.4,180,1238.3,180z"/>
<path class="st6" d="M1307.3,180h14.5c2.9,0,5.3,2.4,5.3,5.3v0.5c0,2.9-2.4,5.3-5.3,5.3h-14.5c-2.9,0-5.3-2.4-5.3-5.3v-0.5
	C1302,182.4,1304.4,180,1307.3,180z"/>
<path class="st6" d="M1386.3,180h22.5c2.9,0,5.3,2.4,5.3,5.3v0.5c0,2.9-2.4,5.3-5.3,5.3h-22.5c-2.9,0-5.3-2.4-5.3-5.3v-0.5
	C1381,182.4,1383.4,180,1386.3,180z"/>
<g>
	<path class="st0" d="M979-202H1442c7.7,0,14,6.3,14,14V-20c0,7.7-6.3,14-14,14H979c-7.7,0-14-6.3-14-14V-188
		C965-195.7,971.3-202,979-202z"/>
	<path class="st8" d="M979-200.2H1442c6.8,0,12.3,5.5,12.3,12.3V-20c0,6.8-5.5,12.3-12.3,12.3H979c-6.8,0-12.3-5.5-12.3-12.3V-188
		C966.8-194.8,972.2-200.2,979-200.2z"/>
</g>
<path class="st9" d="M1019-80.2c12.5-3.3,29-20.2,46-16.3c21.3,4.9,30.3,37.5,47.1,31.8c16.8-5.7,61.5-38.6,88.9-31.8
	c33.8,8.3,29,45.8,60.4,16.3c31.4-29.6,50.5-11.7,76.6-8.7c26.1,3,51.6-6.8,67-20.1"/>
<path class="st10" d="M1019-85.1c12.5-3.2,41.8-8.8,58.8-4.9c21.3,4.9,27.9,23.6,44.7,18c16.8-5.6,53.2-45.3,78.5-29.2
	s33.5,58.5,64.9,29.2c31.4-29.2,28.7-44.6,54.8-41.6c26.1,3,68.9,13.1,84.3,0"/>
<circle class="st6" cx="1190" cy="-105" r="4"/>
<path class="st11" d="M1167.9-136.4c0-2,1.6-3.7,3.7-3.7h35.9c2,0,3.7,1.6,3.7,3.7v12.8c0,2-1.6,3.7-3.7,3.7H1197
	c-2.9,0-5.6,1.3-7.4,3.6c0,0,0,0,0,0c0,0,0,0,0,0s0,0,0,0c0,0,0,0,0,0c-1.8-2.2-4.5-3.6-7.4-3.6h-10.5c-2,0-3.7-1.6-3.7-3.7V-136.4z
	"/>
<path class="st6" d="M1014-162h91c3.9,0,7,3.1,7,7l0,0c0,3.9-3.1,7-7,7h-91c-3.9,0-7-3.1-7-7l0,0C1007-158.9,1010.1-162,1014-162z"
	/>
<path class="st6" d="M1352.3-60h68.5c2.9,0,5.3,2.4,5.3,5.3v0.5c0,2.9-2.4,5.3-5.3,5.3h-68.5c-2.9,0-5.3-2.4-5.3-5.3v-0.5
	C1347-57.6,1349.4-60,1352.3-60z"/>
<path class="st6" d="M1011.5-141h49c2.5,0,4.5,2,4.5,4.5l0,0c0,2.5-2,4.5-4.5,4.5h-49c-2.5,0-4.5-2-4.5-4.5l0,0
	C1007-139,1009-141,1011.5-141z"/>
<path class="st6" d="M1386.5-44h36c1.9,0,3.5,1.6,3.5,3.5l0,0c0,1.9-1.6,3.5-3.5,3.5h-36c-1.9,0-3.5-1.6-3.5-3.5l0,0
	C1383-42.4,1384.6-44,1386.5-44z"/>
<path class="st6" d="M1182.5-130h16c0.8,0,1.5,0.7,1.5,1.5l0,0c0,0.8-0.7,1.5-1.5,1.5h-16c-0.8,0-1.5-0.7-1.5-1.5l0,0
	C1181-129.3,1181.7-130,1182.5-130z"/>
<path class="st6" d="M1186-135h7c1.1,0,2,0.9,2,2l0,0c0,1.1-0.9,2-2,2h-7c-1.1,0-2-0.9-2-2l0,0C1184-134.1,1184.9-135,1186-135z"/>
<g>
	<path class="st1" d="M532-43.2H893c6.8,0,12.3,5.5,12.3,12.3V58c0,6.8-5.5,12.3-12.3,12.3H532c-6.8,0-12.3-5.5-12.3-12.3V-31
		C519.8-37.8,525.2-43.2,532-43.2z"/>
	<path class="st2" d="M562,34h46c3.9,0,7,3.1,7,7l0,0c0,3.9-3.1,7-7,7h-46c-3.9,0-7-3.1-7-7l0,0C555,37.1,558.1,34,562,34z"/>
	<path class="st3" d="M739,14h7c3.9,0,7,3.1,7,7v31c0,3.9-3.1,7-7,7h-7c-3.9,0-7-3.1-7-7V21C732,17.1,735.1,14,739,14z"/>
	<path class="st3" d="M767,30h7c3.9,0,7,3.1,7,7v16c0,3.9-3.1,7-7,7h-7c-3.9,0-7-3.1-7-7V37C760,33.1,763.1,30,767,30z"/>
	<path class="st3" d="M795-14h7c3.9,0,7,3.1,7,7v59c0,3.9-3.1,7-7,7h-7c-3.9,0-7-3.1-7-7V-7C788-10.9,791.1-14,795-14z"/>
	<path class="st3" d="M823,2h7c3.9,0,7,3.1,7,7v44c0,3.9-3.1,7-7,7h-7c-3.9,0-7-3.1-7-7V9C816,5.1,819.1,2,823,2z"/>
	<path class="st3" d="M851,30h7c3.9,0,7,3.1,7,7v16c0,3.9-3.1,7-7,7h-7c-3.9,0-7-3.1-7-7V37C844,33.1,847.1,30,851,30z"/>
	<path class="st3" d="M879,14h7c3.9,0,7,3.1,7,7v31c0,3.9-3.1,7-7,7h-7c-3.9,0-7-3.1-7-7V21C872,17.1,875.1,14,879,14z"/>
</g>
<g>
	<path class="st1" d="M532,95.8H893c6.8,0,12.3,5.5,12.3,12.3V197c0,6.8-5.5,12.3-12.3,12.3H532c-6.8,0-12.3-5.5-12.3-12.3V108
		C519.8,101.2,525.2,95.8,532,95.8z"/>
	<path class="st2" d="M562,173h46c3.9,0,7,3.1,7,7l0,0c0,3.9-3.1,7-7,7h-46c-3.9,0-7-3.1-7-7l0,0C555,176.1,558.1,173,562,173z"/>
	<path class="st3" d="M739,173h7c3.9,0,7,3.1,7,7v12c0,3.9-3.1,7-7,7h-7c-3.9,0-7-3.1-7-7v-12C732,176.1,735.1,173,739,173z"/>
	<path class="st3" d="M767,150h7c3.9,0,7,3.1,7,7v35c0,3.9-3.1,7-7,7h-7c-3.9,0-7-3.1-7-7v-35C760,153.1,763.1,150,767,150z"/>
	<path class="st3" d="M795,166h7c3.9,0,7,3.1,7,7v19c0,3.9-3.1,7-7,7h-7c-3.9,0-7-3.1-7-7v-19C788,169.1,791.1,166,795,166z"/>
	<path class="st12" d="M823,150h7c3.9,0,7,3.1,7,7v35c0,3.9-3.1,7-7,7h-7c-3.9,0-7-3.1-7-7v-35C816,153.1,819.1,150,823,150z"/>
	<path class="st3" d="M851,169h7c3.9,0,7,3.1,7,7v16c0,3.9-3.1,7-7,7h-7c-3.9,0-7-3.1-7-7v-16C844,172.1,847.1,169,851,169z"/>
	<path class="st3" d="M879,153h7c3.9,0,7,3.1,7,7v31c0,3.9-3.1,7-7,7h-7c-3.9,0-7-3.1-7-7v-31C872,156.1,875.1,153,879,153z"/>
</g>
</svg>
