<?xml version="1.0" encoding="utf-8"?>
<!-- Generator: Adobe Illustrator 19.0.0, SVG Export Plug-In . SVG Version: 6.00 Build 0)  -->
<svg version="1.1" id="Layer_1" xmlns="http://www.w3.org/2000/svg" xmlns:xlink="http://www.w3.org/1999/xlink" x="0px" y="0px"
	 viewBox="10.8 -20.2 59.3 59.3" style="enable-background:new 10.8 -20.2 59.3 59.3;" xml:space="preserve">
<style type="text/css">
	.st0{fill:#206ECF;}
</style>
<path class="st0" d="M64.4-14.6c1.1,1-0.1,10.8-5.8,18.8c1.1,2.5,1.7,5.3,1.7,8.3c0,11.9-9.9,21.5-22.2,21.5S16,24.3,16,12.5
	C16,0.6,25.9-9.1,38.2-9.1c2.7,0,5.3,0.5,7.7,1.3C53.6-13.8,63.4-15.6,64.4-14.6z M38.1-6.4C27.4-6.4,18.7,2,18.7,12.4
	c0,5.4,2.4,10.3,6.2,13.8l6.3-7.9c0.2-0.2,0.4-0.4,0.7-0.4c0.3,0,0.6,0,0.8,0.2c0,0,0.1,0,0.1,0.1c0.4,0.4,0.5,1,0.1,1.4
	c0,0.1-0.1,0.1-0.1,0.2l-7.8,6.6c3.4,3,8,4.9,13,4.9c10.7,0,19.3-8.4,19.3-18.8c0-2-0.3-3.8-0.9-5.6c-0.1,0.1-0.2,0.2-0.3,0.4
	c-1.7,1.8-3.5,3.4-5.4,4.8c-3.3,2.4-6.7,4-9.5,4.5c-1.6,0.3-3.8,0.3-5.3-1c-1.5-1.3-1.6-3.5-1.5-5.1l0,0c0.3-2.8,1.6-6.2,3.9-9.6
	l0,0c1.3-1.9,2.8-3.8,4.4-5.6c0.2-0.2,0.5-0.5,0.7-0.7C41.8-6.1,40-6.4,38.1-6.4z M37.9,20c0,0,0.1,0.1,0.1,0.1
	c0.4,0.4,0.5,1,0.2,1.5c-0.1,0.1-0.1,0.2-0.2,0.2l-6.4,5.1l4.7-6.6C36.7,19.8,37.4,19.6,37.9,20z M50.4,13.7l0,4.1l-6.7,7.1
	l-1.6-7.3C44.6,17,47.5,15.6,50.4,13.7z M30.6,13.4c0,0,0.1,0.1,0.1,0.1c0.4,0.4,0.5,1,0.2,1.5c-0.1,0.1-0.1,0.2-0.2,0.2l-6.4,5.1
	l4.7-6.6c0.2-0.2,0.4-0.4,0.7-0.5C30.1,13.2,30.4,13.2,30.6,13.4z M36.3,1.1c-1.8,2.8-2.9,5.7-3.3,8.1l-7.7-1l6.7-6.9L36.3,1.1z"/>
</svg>
