<svg width="55" height="55" viewBox="0 0 55 55" fill="none" xmlns="http://www.w3.org/2000/svg">
<g clip-path="url(#clip0_1_1249)">
<path fill-rule="evenodd" clip-rule="evenodd" d="M23.8403 10.4746C12.3179 10.4746 2.9443 19.7484 2.9443 31.1474C2.9443 42.5471 12.3179 51.821 23.8403 51.821C35.3619 51.821 44.7362 42.5471 44.7362 31.1474C44.7362 19.7484 35.3619 10.4746 23.8403 10.4746ZM23.9374 54.9154C10.738 54.9154 0 44.2921 0 31.2332C0 18.1744 10.738 7.55103 23.9374 7.55103C37.1368 7.55103 47.8748 18.1744 47.8748 31.2332C47.8748 44.2921 37.1368 54.9154 23.9374 54.9154Z" fill="white"/>
<path fill-rule="evenodd" clip-rule="evenodd" d="M19.3383 17.4527L23.9371 17.161C22.02 20.2822 20.7717 23.387 20.3535 26.0847L11.9684 25.0207L19.3383 17.4527ZM31.3295 43.2457L29.5694 35.1066C32.3729 34.4833 35.5418 33.0157 38.6769 30.8898L38.722 35.4231L31.3295 43.2457ZM17.1691 32.991L10.5603 38.4407L15.4583 31.3964C15.6371 31.1362 15.9075 30.9639 16.2159 30.9083C16.3964 30.8754 16.5825 30.8855 16.7582 30.9376C16.934 30.9897 17.0942 31.0823 17.2255 31.2076C17.6556 31.6085 17.7253 32.273 17.3874 32.7549C17.3261 32.8427 17.2494 32.9265 17.1691 32.991ZM19.9945 37.8215L10.5603 45.9915L18.178 36.1754C18.378 35.918 18.6709 35.7512 18.9997 35.7066C19.1831 35.6809 19.3702 35.6959 19.5468 35.7506C19.7235 35.8053 19.8852 35.8982 20.0198 36.0223C20.1473 36.1377 20.2486 36.2778 20.3171 36.4337C20.3856 36.5895 20.4198 36.7577 20.4174 36.9272C20.4151 37.0968 20.3763 37.264 20.3036 37.418C20.2309 37.5721 20.1258 37.7095 19.9952 37.8215H19.9945ZM25.6183 39.8547L19.0088 45.3051L23.9061 38.2587C24.0002 38.121 24.1241 38.005 24.2692 37.9191C24.4143 37.8332 24.5769 37.7793 24.7456 37.7614C24.9144 37.7434 25.0851 37.7618 25.2458 37.8153C25.4064 37.8687 25.5531 37.9559 25.6754 38.0707C25.8836 38.2695 26.0137 38.5332 26.0432 38.8158C26.0726 39.0985 25.9995 39.3823 25.8366 39.6179C25.7746 39.7058 25.6979 39.7895 25.6183 39.8547ZM23.4795 33.0205C21.8545 31.5481 21.7123 29.1854 21.8785 27.4562L21.8799 27.4452C22.177 24.4029 23.6682 20.6886 26.0788 16.9846L26.0886 16.9702C27.4672 14.8518 29.0984 12.7945 30.9374 10.854C39.507 1.81012 53.1689 -0.944565 54.5122 0.271121C55.8541 1.48749 54.0856 15.0186 45.5146 24.0625C43.67 26.0106 41.6909 27.761 39.6351 29.2671C36.041 31.8989 32.3666 33.6356 29.2871 34.1573C27.5362 34.4538 25.1079 34.4971 23.4788 33.0212" fill="white"/>
</g>
<defs>
<clipPath id="clip0_1_1249">
<rect width="54.9153" height="54.9153" fill="white"/>
</clipPath>
</defs>
</svg>
