<?xml version="1.0" encoding="utf-8"?>
<!-- Generator: Adobe Illustrator 19.0.0, SVG Export Plug-In . SVG Version: 6.00 Build 0)  -->
<svg version="1.1" id="Layer_1" xmlns="http://www.w3.org/2000/svg" xmlns:xlink="http://www.w3.org/1999/xlink" x="0px" y="0px"
	 viewBox="8 -7 33 33" style="enable-background:new 8 -7 33 33;" xml:space="preserve">
<style type="text/css">
	.st0{fill:#206ECF;}
	.st1{fill:#FFFFFF;}
</style>
<path class="st0" d="M12.5-6.5h23.9c2.2,0,4,1.8,4,4v23.9c0,2.2-1.8,4-4,4H12.5c-2.2,0-4-1.8-4-4V-2.5C8.5-4.7,10.3-6.5,12.5-6.5z"
	/>
<path class="st1" d="M32.3,9.9c0,4.4-3.6,8-8,8c-4.4,0-8-3.6-8-8c0-4.4,3.6-8,8-8C28.8,1.9,32.3,5.4,32.3,9.9z"/>
<path class="st0" d="M25.2,7.2c0-0.5-0.4-0.9-0.9-0.9c-0.5,0-0.9,0.4-0.9,0.9V9h-1.8c-0.5,0-0.9,0.4-0.9,0.9c0,0.5,0.4,0.9,0.9,0.9
	h1.8v1.8c0,0.5,0.4,0.9,0.9,0.9c0.5,0,0.9-0.4,0.9-0.9v-1.8H27c0.5,0,0.9-0.4,0.9-0.9C27.9,9.4,27.5,9,27,9h-1.8V7.2z"/>
</svg>
