<?xml version="1.0" encoding="utf-8"?>
<!-- Generator: Adobe Illustrator 19.0.0, SVG Export Plug-In . SVG Version: 6.00 Build 0)  -->
<svg version="1.1" id="Layer_1" xmlns="http://www.w3.org/2000/svg" xmlns:xlink="http://www.w3.org/1999/xlink" x="0px" y="0px"
	 viewBox="8 -7 33 33" style="enable-background:new 8 -7 33 33;" xml:space="preserve">
<style type="text/css">
	.st0{fill:#206ECF;}
	.st1{clip-path:url(#SVGID_2_);}
	.st2{fill:#FFFFFF;}
</style>
<path class="st0" d="M12.5-6.5h23.9c2.2,0,4,1.8,4,4v23.9c0,2.2-1.8,4-4,4H12.5c-2.2,0-4-1.8-4-4V-2.5C8.5-4.7,10.3-6.5,12.5-6.5z"
	/>
<g>
	<g>
		<defs>
			<rect id="SVGID_1_" x="16.5" y="1.5" width="16" height="16"/>
		</defs>
		<clipPath id="SVGID_2_">
			<use xlink:href="#SVGID_1_"  style="overflow:visible;"/>
		</clipPath>
		<g class="st1">
			<path class="st2" d="M25.2,5.4h-1.3c-0.3,0-0.7,0.1-0.9,0.4c-0.2,0.3-0.4,0.6-0.4,1v9.5c0,0.7,0.6,1.3,1.3,1.3H25
				c0.7,0,1.3-0.6,1.3-1.3V6.7c0-0.4-0.1-0.7-0.4-1C25.8,5.5,25.5,5.4,25.2,5.4z"/>
			<path class="st2" d="M31.2,1.5h-1.3c-0.3,0-0.7,0.1-0.9,0.4c-0.2,0.3-0.4,0.6-0.4,0.9v13.3c0,0.7,0.6,1.3,1.3,1.3H31
				c0.7,0,1.3-0.6,1.3-1.3V2.9c0-0.4-0.1-0.7-0.4-0.9C31.9,1.7,31.6,1.5,31.2,1.5z"/>
			<path class="st2" d="M19.1,9.2h-1.3c-0.3,0-0.7,0.1-0.9,0.4c-0.2,0.3-0.4,0.6-0.4,1v5.7c0,0.7,0.6,1.3,1.3,1.3h1.1
				c0.7,0,1.3-0.6,1.3-1.3v-5.7c0-0.4-0.1-0.7-0.4-1C19.7,9.3,19.4,9.2,19.1,9.2z"/>
		</g>
	</g>
</g>
</svg>
