<?xml version="1.0" encoding="utf-8"?>
<!-- Generator: Adobe Illustrator 19.0.0, SVG Export Plug-In . SVG Version: 6.00 Build 0)  -->
<svg version="1.1" id="Layer_1" xmlns="http://www.w3.org/2000/svg" xmlns:xlink="http://www.w3.org/1999/xlink" x="0px" y="0px"
	 viewBox="8 -7 33 33" style="enable-background:new 8 -7 33 33;" xml:space="preserve">
<style type="text/css">
	.st0{fill:#206ECF;}
	.st1{fill:#FFFFFF;}
</style>
<path class="st0" d="M12.5-6.5h23.9c2.2,0,4,1.8,4,4v23.9c0,2.2-1.8,4-4,4H12.5c-2.2,0-4-1.8-4-4V-2.5C8.5-4.7,10.3-6.5,12.5-6.5z"
	/>
<path class="st1" d="M16.3,3c0-1,0.8-1.9,1.9-1.9H21c1,0,1.9,0.8,1.9,1.9v2.8c0,1-0.8,1.9-1.9,1.9h-2.8c-1,0-1.9-0.8-1.9-1.9V3z"/>
<path class="st1" d="M16.3,11.5c0-1,0.8-1.9,1.9-1.9H21c1,0,1.9,0.8,1.9,1.9v2.8c0,1-0.8,1.9-1.9,1.9h-2.8c-1,0-1.9-0.8-1.9-1.9
	V11.5z"/>
<path class="st1" d="M24.8,3c0-1,0.8-1.9,1.9-1.9h2.8c1,0,1.9,0.8,1.9,1.9v2.8c0,1-0.8,1.9-1.9,1.9h-2.8c-1,0-1.9-0.8-1.9-1.9V3z"/>
<path class="st1" d="M24.8,11.5c0-1,0.8-1.9,1.9-1.9h3.8c1,0,1.9,0.8,1.9,1.9v3.8c0,1-0.8,1.9-1.9,1.9h-3.8c-1,0-1.9-0.8-1.9-1.9
	V11.5z"/>
</svg>
