<svg width="32" height="33" viewBox="0 0 32 33" fill="none" xmlns="http://www.w3.org/2000/svg">
<rect x="0.5" y="1.32812" width="31" height="31" rx="2.7" stroke="#494B4E"/>
<g clip-path="url(#clip0_1059_523)">
<path fill-rule="evenodd" clip-rule="evenodd" d="M8.98308 23.6054H12.0689V14.4606H8.98308V23.6054ZM10.5459 10.0525C9.49047 10.0525 8.80096 10.7352 8.80096 11.6323C8.80096 12.5115 9.47183 13.212 10.5061 13.212H10.5273C11.603 13.212 12.2722 12.5115 12.2722 11.6323C12.2527 10.7344 11.603 10.0525 10.5459 10.0525ZM23.201 18.3604V23.6054H20.1134V18.712C20.1134 17.4837 19.6679 16.6451 18.5489 16.6451C17.6959 16.6451 17.1911 17.2101 16.9649 17.7573C16.8844 17.9522 16.8633 18.2258 16.8633 18.4977V23.6054H13.7774C13.7774 23.6054 13.8198 15.3195 13.7774 14.4606H16.865V15.7566C16.859 15.7667 16.8497 15.7761 16.8438 15.7871H16.865V15.7557C17.2758 15.134 18.0068 14.2463 19.6467 14.2463C21.6763 14.2463 23.201 15.5524 23.201 18.3604Z" fill="#F3F5F7"/>
</g>
<defs>
<clipPath id="clip0_1059_523">
<rect x="8.80078" y="9.62891" width="14.4" height="14.4" fill="white"/>
</clipPath>
</defs>
</svg>
