<svg width="32" height="33" viewBox="0 0 32 33" fill="none" xmlns="http://www.w3.org/2000/svg">
<rect x="0.499695" y="1.32812" width="30.9998" height="30.9998" rx="2.69998" stroke="#494B4E"/>
<g clip-path="url(#clip0_1059_537)">
<path fill-rule="evenodd" clip-rule="evenodd" d="M21.7344 14.3183C21.7344 14.188 21.7275 14.0653 21.722 13.9364C22.3021 13.5319 22.8031 13.0245 23.2004 12.4395C22.6596 12.6689 22.0876 12.8164 21.5033 12.877C22.1185 12.5236 22.5812 11.9549 22.802 11.2806C22.2205 11.6122 21.5864 11.8413 20.9273 11.9581C20.6512 11.6615 20.318 11.4238 19.9478 11.2591C19.5776 11.0943 19.1779 11.006 18.7728 10.9995C18.3866 10.9926 18.0028 11.0627 17.6441 11.2059C17.2853 11.3491 16.9587 11.5624 16.6834 11.8333C16.408 12.1042 16.1895 12.4273 16.0406 12.7837C15.8916 13.1402 15.8153 13.5227 15.816 13.909C15.816 14.1387 15.84 14.3622 15.8935 14.5803C13.4359 14.4294 11.2581 13.2246 9.80299 11.4041C9.53862 11.8563 9.39967 12.3709 9.40047 12.8948C9.40047 13.9302 9.92367 14.8498 10.7177 15.388C10.2461 15.3678 9.78623 15.2349 9.37647 15.0006V15.0411C9.37649 15.7283 9.61227 16.3948 10.0444 16.9292C10.4766 17.4636 11.079 17.8335 11.7511 17.9773C11.4974 18.0448 11.236 18.0785 10.9735 18.0774C10.7859 18.0742 10.5991 18.0535 10.4153 18.0157C10.6003 18.6072 10.9661 19.1259 11.4612 19.4988C11.9562 19.8718 12.5557 20.0802 13.1753 20.0948C12.5623 20.5759 11.8602 20.9311 11.1094 21.1399C10.3586 21.3487 9.57388 21.4069 8.80048 21.3112C10.1472 22.1911 11.7216 22.6587 13.3303 22.6566C18.7611 22.6566 21.7344 18.1899 21.7344 14.3183Z" fill="#F3F5F7"/>
</g>
<defs>
<clipPath id="clip0_1059_537">
<rect x="8.80048" y="9.62891" width="14.3999" height="14.3999" fill="white"/>
</clipPath>
</defs>
</svg>
